<?xml version="1.0" standalone="no"?>
<!DOCTYPE svg PUBLIC "-//W3C//DTD SVG 20010904//EN"
 "http://www.w3.org/TR/2001/REC-SVG-20010904/DTD/svg10.dtd">
<svg version="1.0" xmlns="http://www.w3.org/2000/svg"
 width="93.000000pt" height="93.000000pt" viewBox="0 0 93.000000 93.000000"
 preserveAspectRatio="xMidYMid meet">
<metadata>
Created by potrace 1.11, written by Peter Selinger 2001-2013
</metadata>
<g transform="translate(0.000000,93.000000) scale(0.100000,-0.100000)"
fill="#000000" stroke="none">
<path d="M317 827 c-28 -20 -30 -62 -5 -94 13 -15 23 -37 22 -48 -2 -48 -5
-53 -21 -50 -26 4 -43 -14 -43 -42 0 -23 -3 -25 -27 -19 -29 7 -33 8 -93 3
-39 -2 -48 19 -18 41 12 9 18 26 18 52 0 34 -4 42 -29 55 -68 35 -137 -50 -81
-100 13 -12 20 -31 20 -56 0 -42 11 -53 55 -54 16 -1 43 -5 58 -10 16 -4 38
-3 50 2 29 13 47 6 47 -18 0 -21 -16 -24 -55 -9 -35 13 -69 -18 -56 -52 9 -23
35 -28 86 -17 21 4 32 -20 21 -47 -5 -12 -10 -13 -38 -1 -23 10 -40 11 -55 4
-16 -7 -26 -6 -37 6 -39 39 -99 24 -112 -28 -15 -61 55 -104 107 -66 21 16 34
19 47 13 9 -5 26 -6 37 -1 36 14 55 10 55 -11 0 -20 36 -43 53 -33 4 2 7 1 8
-4 0 -4 2 -18 3 -31 2 -12 0 -22 -3 -23 -46 -6 -61 -4 -92 17 -23 16 -43 22
-55 18 -59 -21 -72 -78 -27 -114 30 -24 69 -20 91 8 13 18 69 18 87 1 28 -27
83 17 65 52 -6 10 -10 31 -10 47 0 28 3 30 35 30 34 0 35 -1 35 -41 0 -23 -4
-49 -9 -56 -21 -33 35 -75 64 -51 16 13 20 56 7 64 -7 4 -8 37 -3 78 1 3 16 6
34 5 29 -2 32 -5 35 -39 2 -20 -1 -45 -6 -55 -19 -36 21 -73 58 -53 20 11 28
54 12 64 -4 2 -7 22 -6 43 1 44 41 93 74 93 28 0 27 -63 0 -97 -27 -34 -25
-59 5 -88 31 -31 59 -32 90 -1 27 27 26 67 -3 101 -18 21 -21 57 -8 87 14 30
3 63 -22 66 -13 2 -31 0 -40 -4 -42 -18 -61 -8 -44 22 6 11 11 13 16 5 12 -19
54 -12 70 11 12 16 16 18 16 7 0 -23 33 -49 61 -49 36 0 59 21 65 57 6 38 -26
73 -66 73 -27 0 -60 -27 -60 -48 0 -7 -9 -3 -20 8 -22 22 -45 26 -55 10 -14
-23 -30 -8 -30 28 0 31 4 38 24 40 13 2 28 -1 34 -7 16 -16 52 -14 67 4 28 34
-22 92 -56 64 -7 -6 -25 -9 -41 -7 -20 2 -27 8 -25 21 2 11 -7 22 -25 30 -28
12 -38 45 -20 63 13 13 67 11 79 -3 22 -26 46 -33 75 -22 33 12 43 26 43 60 0
30 -33 69 -59 69 -10 0 -30 -9 -45 -21 -21 -17 -35 -20 -69 -15 -23 3 -51 6
-62 6 -24 1 -48 -29 -39 -50 4 -8 9 -31 11 -50 5 -34 4 -35 -31 -35 -20 0 -36
5 -37 10 0 6 -2 18 -4 27 -2 10 1 20 6 24 5 3 9 18 9 34 0 35 -25 51 -58 39
-22 -8 -23 -12 -17 -72 l7 -64 -34 2 c-31 1 -33 4 -36 38 -2 26 3 45 18 64 22
28 21 63 -2 90 -13 17 -69 17 -91 0z m53 -47 c0 -5 -4 -10 -10 -10 -5 0 -10 5
-10 10 0 6 5 10 10 10 6 0 10 -4 10 -10z m430 -50 c0 -5 -4 -10 -9 -10 -6 0
-13 5 -16 10 -3 6 1 10 9 10 9 0 16 -4 16 -10z m-700 -60 c0 -5 -4 -10 -10
-10 -5 0 -10 5 -10 10 0 6 5 10 10 10 6 0 10 -4 10 -10z m538 -227 l-3 -138
-155 -2 -155 -3 1 128 c1 70 2 133 3 140 1 9 39 12 156 12 l156 0 -3 -137z
m228 -30 c-10 -10 -19 5 -10 18 6 11 8 11 12 0 2 -7 1 -15 -2 -18z m-766 -83
c0 -5 -4 -10 -10 -10 -5 0 -10 5 -10 10 0 6 5 10 10 10 6 0 10 -4 10 -10z
m110 -170 c0 -5 -7 -10 -16 -10 -8 0 -12 5 -9 10 3 6 10 10 16 10 5 0 9 -4 9
-10z m570 0 c0 -5 -4 -10 -10 -10 -5 0 -10 5 -10 10 0 6 5 10 10 10 6 0 10 -4
10 -10z"/>
<path d="M401 531 c-18 -12 -18 -171 0 -182 19 -11 157 -5 169 7 7 7 10 44 8
95 l-3 84 -80 3 c-44 1 -86 -2 -94 -7z m115 -50 c7 -1 12 -19 12 -41 l1 -40
-45 0 -44 0 0 38 c0 46 3 50 38 46 15 -1 32 -2 38 -3z"/>
</g>
</svg>
